<?xml version="1.0" encoding="iso-8859-1"?>
<!-- Generator: Adobe Illustrator 19.0.0, SVG Export Plug-In . SVG Version: 6.00 Build 0)  -->
<svg xmlns="http://www.w3.org/2000/svg" xmlns:xlink="http://www.w3.org/1999/xlink" version="1.1" id="Layer_1" x="0px" y="0px" viewBox="0 0 512 512" style="enable-background:new 0 0 512 512;" xml:space="preserve">
<circle style="fill:#FFD15D;" cx="256" cy="256" r="256"/>
<path style="fill:#F9B54C;" d="M311.498,505.949c95.922-21.204,171.632-96.196,193.85-191.733L345.652,154.521l-7.458,5.158  l-48.673-48.673L187.62,243.359l-80.532,45.396l52.109,52.108l-6.335,6.451L311.498,505.949z"/>
<path style="fill:#F1543F;" d="M315.768,315.975H197.687V199.347h118.079l29.884-44.825c0,0-24.3,0.603-44.825-29.884  C280.3,94.149,256,94.753,256,94.753s-24.3-0.603-44.825,29.884s-44.827,29.884-44.827,29.884l26.977,40.467l-40.464-26.977  c0,0,0.603,24.3-29.884,44.825C92.491,233.36,93.094,257.66,93.094,257.66s-0.603,24.3,29.884,44.825s29.884,44.825,29.884,44.825  l40.464-26.976l-26.974,40.464c0,0,24.3-0.603,44.825,29.884c20.527,30.489,44.825,29.884,44.825,29.884s24.3,0.603,44.825-29.884  c20.527-30.487,44.825-29.884,44.825-29.884L315.768,315.975z"/>
<path style="fill:#D83E20;" d="M389.025,212.835c-30.487-20.527-29.884-44.825-29.884-44.825l-40.469,26.979l26.977-40.467  c0,0-24.3,0.603-44.825-29.884C280.3,94.149,256,94.753,256,94.753s-0.203-0.003-0.574,0.009v104.584h58.89v116.627h-58.889v104.586  c0.372,0.014,0.576,0.009,0.576,0.009s24.3,0.603,44.825-29.884c20.527-30.487,44.825-29.884,44.825-29.884l-26.977-40.465  l40.465,26.977c0,0-0.603-24.3,29.884-44.825c30.487-20.527,29.884-44.827,29.884-44.827S419.512,233.362,389.025,212.835z"/>
<circle style="fill:#E6F3FF;" cx="256" cy="256.224" r="83.644"/>
<path style="fill:#CFDBE6;" d="M256,172.568c-0.193,0-0.383,0.014-0.574,0.016v167.277c0.193,0.002,0.381,0.014,0.574,0.014  c46.201,0,83.652-37.452,83.652-83.652S302.201,172.568,256,172.568z"/>
<path style="fill:#D83E20;" d="M214.892,270.203c0-22.107,40.029-72.423,40.029-72.423s40.029,50.316,40.029,72.423  s-17.922,40.029-40.029,40.029S214.892,292.311,214.892,270.203z"/>
<path style="fill:#C1321F;" d="M294.95,270.203c0-20.654-34.93-65.917-39.524-71.782v111.797  C277.299,309.946,294.95,292.14,294.95,270.203z"/>
<path style="fill:#FFD15D;" d="M255.024,268.131c0,0,0.974-11.995-7.651-26.821c0,0-19.801,23.059-17.718,41.584  c1.56,13.865,11.312,25.266,25.266,25.266c13.953,0,24.423-11.336,25.266-25.266c0.95-15.694-5.318-36.193-23.109-48.862  C257.077,234.032,264.023,261.256,255.024,268.131z"/>
<path style="fill:#F9B54C;" d="M257.077,234.032c0,0,6.718,26.36-1.651,33.745v40.357c13.696-0.274,23.926-11.483,24.759-25.24  C281.135,267.2,274.868,246.701,257.077,234.032z"/>
<g>
</g>
<g>
</g>
<g>
</g>
<g>
</g>
<g>
</g>
<g>
</g>
<g>
</g>
<g>
</g>
<g>
</g>
<g>
</g>
<g>
</g>
<g>
</g>
<g>
</g>
<g>
</g>
<g>
</g>
</svg>
