<?xml version="1.0" encoding="iso-8859-1"?>
<!-- Generator: Adobe Illustrator 19.0.0, SVG Export Plug-In . SVG Version: 6.00 Build 0)  -->
<svg xmlns="http://www.w3.org/2000/svg" xmlns:xlink="http://www.w3.org/1999/xlink" version="1.1" id="Layer_1" x="0px" y="0px" viewBox="0 0 512 512" style="enable-background:new 0 0 512 512;" xml:space="preserve">
<circle style="fill:#324A5E;" cx="256" cy="256" r="256"/>
<path style="fill:#2B3B4E;" d="M328.285,501.634c101.062-29.694,176.15-120.048,183.16-228.95L352.539,113.778l-141.934,85.333  l-98.861,63.233l124.073,124.073l-13.217,9.53L328.285,501.634z"/>
<path style="fill:#A82116;" d="M260.256,398.222h-30.405c-5.722,0-10.745-3.812-12.285-9.323l-24.654-88.271  c-2.27-8.13,3.843-16.184,12.285-16.184h30.405c5.722,0,10.745,3.812,12.285,9.323l24.654,88.271  C274.811,390.168,268.698,398.222,260.256,398.222z"/>
<path style="fill:#C1321F;" d="M148.175,268.067h-23.973c-9.088,0-16.458-7.368-16.458-16.458V203.5  c0-9.088,7.368-16.458,16.458-16.458h23.974c9.088,0,16.458,7.368,16.458,16.458v48.109  C164.633,260.699,157.265,268.067,148.175,268.067z"/>
<path style="fill:#A82116;" d="M107.744,227.268v24.342c0,9.088,7.368,16.458,16.458,16.458h23.974  c9.088,0,16.458-7.368,16.458-16.458v-24.342H107.744z"/>
<path style="fill:#E6F3FF;" d="M299.098,239.542v-23.974c0-9.09,7.368-16.458,16.458-16.458h48.109  c9.088,0,16.458,7.368,16.458,16.458v23.974c0,9.088-7.368,16.458-16.458,16.458h-48.109  C306.466,256,299.098,248.632,299.098,239.542z"/>
<path style="fill:#CFDBE6;" d="M299.098,227.268v12.274c0,9.088,7.368,16.458,16.458,16.458h48.109  c9.088,0,16.458-7.368,16.458-16.458v-12.274H299.098z"/>
<path style="fill:#D83E20;" d="M324.094,113.778L324.094,113.778c0,15.71-12.734,28.444-28.444,28.444h-85.333  c-47.128,0-85.333,38.205-85.333,85.333l0,0c0,47.128,38.205,85.333,85.333,85.333h85.333c15.71,0,28.444,12.734,28.444,28.444l0,0  h28.444V113.778H324.094z"/>
<path style="fill:#C1321F;" d="M124.99,227.268c0,0.097-0.007,0.191-0.007,0.288l0,0c0,47.128,38.205,85.333,85.333,85.333h85.333  c15.71,0,28.444,12.734,28.444,28.444h28.444V227.268L124.99,227.268L124.99,227.268z"/>
<rect x="256" y="142.222" style="fill:#FD8469;" width="28.444" height="170.667"/>
<rect x="256" y="227.262" style="fill:#FC6F58;" width="28.444" height="85.621"/>
<g>
</g>
<g>
</g>
<g>
</g>
<g>
</g>
<g>
</g>
<g>
</g>
<g>
</g>
<g>
</g>
<g>
</g>
<g>
</g>
<g>
</g>
<g>
</g>
<g>
</g>
<g>
</g>
<g>
</g>
</svg>
