<?xml version="1.0" encoding="iso-8859-1"?>
<!-- Generator: Adobe Illustrator 19.0.0, SVG Export Plug-In . SVG Version: 6.00 Build 0)  -->
<svg xmlns="http://www.w3.org/2000/svg" xmlns:xlink="http://www.w3.org/1999/xlink" version="1.1" id="Layer_1" x="0px" y="0px" viewBox="0 0 512 512" style="enable-background:new 0 0 512 512;" xml:space="preserve">
<circle style="fill:#324A5E;" cx="256" cy="256" r="256"/>
<path style="fill:#2B3B4E;" d="M274.408,511.335c114.336-8.125,207.905-91.331,231.708-200.602L403.18,207.796l-166.912,105.47  L126.997,203.995l-18.604,3.801L221.62,321.022l-95.513,42.01L274.408,511.335z"/>
<polygon style="fill:#E6F3FF;" points="126.105,216.683 126.105,363.034 385.858,363.034 385.858,216.683 255.983,114.564 "/>
<polygon style="fill:#CFDBE6;" points="385.858,216.683 256.002,114.578 256.002,363.034 385.858,363.034 "/>
<polygon style="fill:#C1321F;" points="255.785,97.249 108.391,207.798 126.759,221.615 255.785,124.544 384.812,221.615   403.178,207.798 "/>
<polygon style="fill:#A82116;" points="403.178,207.798 256.002,97.411 256.002,124.706 384.812,221.615 "/>
<path style="fill:#D83E20;" d="M195.663,280.416c0-33.323,60.337-109.166,60.337-109.166s60.337,75.843,60.337,109.166  S289.323,340.752,256,340.752S195.663,313.739,195.663,280.416z"/>
<path style="fill:#C1321F;" d="M316.337,280.416c0-33.316-60.309-109.132-60.337-109.166v169.503  C289.325,340.751,316.337,313.737,316.337,280.416z"/>
<path style="fill:#FFD15D;" d="M256.157,280.416c0,0,1.469-18.08-11.533-40.427c0,0-29.846,34.757-26.707,62.681  c2.35,20.901,17.049,38.083,38.083,38.083c21.032,0,36.812-17.089,38.083-38.083c1.431-23.657-8.014-54.556-34.832-73.652  C259.251,229.017,269.721,270.053,256.157,280.416z"/>
<path style="fill:#F9B54C;" d="M259.251,229.017c0,0,10.469,41.038-3.094,51.398c0,0,0.181-2.267-0.155-6.173v66.51  c21.032,0,36.811-17.089,38.081-38.083C295.515,279.012,286.068,248.113,259.251,229.017z"/>
<g>
</g>
<g>
</g>
<g>
</g>
<g>
</g>
<g>
</g>
<g>
</g>
<g>
</g>
<g>
</g>
<g>
</g>
<g>
</g>
<g>
</g>
<g>
</g>
<g>
</g>
<g>
</g>
<g>
</g>
</svg>
