<?xml version="1.0" encoding="iso-8859-1"?>
<!-- Generator: Adobe Illustrator 19.0.0, SVG Export Plug-In . SVG Version: 6.00 Build 0)  -->
<svg xmlns="http://www.w3.org/2000/svg" xmlns:xlink="http://www.w3.org/1999/xlink" version="1.1" id="Layer_1" x="0px" y="0px" viewBox="0 0 512 512" style="enable-background:new 0 0 512 512;" xml:space="preserve">
<circle style="fill:#E6F3FF;" cx="256" cy="256" r="256"/>
<path style="fill:#CFDBE6;" d="M506.851,307.324L368.723,169.196l-5.454,6.854l-21.935-21.935L199.418,276.876L93.05,331.045  l180.352,180.352C389.384,503.611,484.205,418.594,506.851,307.324z"/>
<path style="fill:#C1321F;" d="M372.364,198.496h-25.859v-20.318c0-7.14,5.789-12.929,12.929-12.929l0,0  c7.14,0,12.929,5.789,12.929,12.929V198.496z"/>
<path style="fill:#A82116;" d="M414.396,249.572l-27.048-54.096c-2.169-4.337-6.603-7.078-11.454-7.078h-53.26v61.175v61.174h92.138  c6.57,0,11.895-5.325,11.895-11.895v-36.226c0-7.209-5.844-13.053-13.053-13.053L414.396,249.572L414.396,249.572z"/>
<path style="fill:#B5F1F4;" d="M369.9,197.666h-50.047v52.369h82.725l-23.281-46.561C377.518,199.914,373.881,197.666,369.9,197.666  z"/>
<circle style="fill:#324A5E;" cx="387.982" cy="310.751" r="30.587"/>
<circle style="fill:#B5F1F4;" cx="387.982" cy="310.751" r="14.831"/>
<rect x="85.333" y="154.117" style="fill:#D83E20;" width="256" height="156.634"/>
<rect x="85.333" y="211.747" style="fill:#C1321F;" width="256" height="98.987"/>
<circle style="fill:#324A5E;" cx="192.405" cy="310.751" r="30.587"/>
<circle style="fill:#B5F1F4;" cx="192.405" cy="310.751" r="14.831"/>
<circle style="fill:#324A5E;" cx="115.915" cy="310.751" r="30.587"/>
<circle style="fill:#B5F1F4;" cx="115.915" cy="310.751" r="14.831"/>
<path style="fill:#E6F3FF;" d="M286.601,187.151v-6.456H92.946v6.456h18.96v45.842h-18.96v6.456h193.653v-6.456h-18.96v-45.842  H286.601z M180.7,187.151h18.146v45.842H180.7V187.151z M169.867,232.993h-18.148v-45.842h18.146v45.842H169.867z M209.68,187.151  h18.146v45.842H209.68V187.151z M122.739,187.149h18.146v45.842h-18.146V187.149z M256.807,232.993h-18.146v-45.842h18.146V232.993z  "/>
<polygon style="fill:#CFDBE6;" points="267.642,211.753 256.807,211.753 256.807,232.993 238.661,232.993 238.661,211.753   227.826,211.753 227.826,232.993 209.68,232.993 209.68,211.753 198.846,211.753 198.846,232.993 180.7,232.993 180.7,211.753   169.867,211.753 169.867,232.993 151.719,232.993 151.719,211.753 140.886,211.753 140.886,232.993 122.739,232.993   122.739,211.753 111.906,211.753 111.906,232.993 92.946,232.993 92.946,239.449 286.601,239.449 286.601,232.993 267.642,232.993   "/>
<g>
</g>
<g>
</g>
<g>
</g>
<g>
</g>
<g>
</g>
<g>
</g>
<g>
</g>
<g>
</g>
<g>
</g>
<g>
</g>
<g>
</g>
<g>
</g>
<g>
</g>
<g>
</g>
<g>
</g>
</svg>
